<?xml version="1.0" encoding="utf-8"?>
<svg version="1.1" xmlns="http://www.w3.org/2000/svg"
	 width="448pt" height="448pt" viewBox="0 0 448 448">
<path d="M224.1,37.3H42c-2.6,0-4.7,2.1-4.7,4.7v70.6c0,2.6,2.1,4.7,4.7,4.7h182.1h182.1c2.6,0,4.7-2.1,4.7-4.7V42
	c0-2.6-2.1-4.7-4.7-4.7H224.1z"/>
<path d="M224.1,330.7H42c-2.6,0-4.7,2.1-4.7,4.7V406c0,2.6,2.1,4.7,4.7,4.7h182h182.1c2.6,0,4.7-2.1,4.7-4.7v-70.6
	c0-2.6-2.1-4.7-4.7-4.7H224.1z"/>
<path d="M224,184H41.9c-2.6,0-4.7,2.1-4.7,4.7v70.6c0,2.6,2.1,4.7,4.7,4.7H224h182c2.6,0,4.7-2.1,4.7-4.7v-70.6
	c0-2.6-2.1-4.7-4.7-4.7H224z"/>
</svg>
